# xmcd
#
# Track frame offsets: 
#        199
#        15198
#        31113
#        52922
#        68597
#        88184
#        109073
#        129520
#        146776
#        168608
#        181548
#        201494
#
# Disc length: 2976 seconds
#
# Revision: 0
# Processed by: cddbd v1.5.2PL0 Copyright (c) Steve Scherf et al.
# Submitted via: ExactAudioCopy v0.99pb5
#
DISCID=990b9e0c
DTITLE=Ricky Dee - Give Me A Chance
DYEAR=1900
DGENRE=Country
TTITLE0=This Lil' Hoedown
TTITLE1=Back In Tennessee
TTITLE2=Somebody New
TTITLE3=When I Find The Girl For Me
TTITLE4=Lovin' You
TTITLE5=Give Me A Chance
TTITLE6=Eternally
TTITLE7=Pamela
TTITLE8=God Bless The Children
TTITLE9=I Wanna Take You Home Tonight
TTITLE10=America My Home
TTITLE11=So Alone
EXTD=
EXTT0=
EXTT1=
EXTT2=
EXTT3=
EXTT4=
EXTT5=
EXTT6=
EXTT7=
EXTT8=
EXTT9=
EXTT10=
EXTT11=
PLAYORDER=
